<svg id="preview_2_" data-name="preview (2)" xmlns="http://www.w3.org/2000/svg" width="50.212" height="50.212" viewBox="0 0 50.212 50.212">
  <path id="Path_8658" data-name="Path 8658" d="M290,8.784V17.73h8.945Z" transform="translate(-261.559 -7.923)" fill="#fb5012"/>
  <path id="Path_8659" data-name="Path 8659" d="M35.65,17.653a11.762,11.762,0,0,1,2.6.29V12.749H26.97A1.471,1.471,0,0,1,25.5,11.278V0H5.394A5.4,5.4,0,0,0,0,5.394V44.818a5.4,5.4,0,0,0,5.394,5.394h27.46a5.4,5.4,0,0,0,5.394-5.394V40.9a11.769,11.769,0,1,1-2.6-23.247ZM20.1,36.286H7.355a1.471,1.471,0,1,1,0-2.942H20.1a1.471,1.471,0,1,1,0,2.942Zm0-5.884H7.355a1.471,1.471,0,1,1,0-2.942H20.1a1.471,1.471,0,1,1,0,2.942Zm0-5.884H7.355a1.471,1.471,0,1,1,0-2.942H20.1a1.471,1.471,0,1,1,0,2.942Zm3.923-5.884H7.355a1.471,1.471,0,1,1,0-2.942H24.027a1.471,1.471,0,1,1,0,2.942Z" fill="#fb5012"/>
  <path id="Path_8660" data-name="Path 8660" d="M296.465,230.878l-6.94-6.94a8.834,8.834,0,1,0-2.08,2.08l6.94,6.94a1.471,1.471,0,0,0,2.08-2.08Z" transform="translate(-246.684 -189.405)" fill="#800020"/>
</svg>
