<svg xmlns="http://www.w3.org/2000/svg" width="52.34" height="52.346" viewBox="0 0 52.34 52.346">
  <g id="global-services" transform="translate(-0.026)">
    <g id="Group_12575" data-name="Group 12575" transform="translate(0.026 30.671)">
      <g id="Group_12574" data-name="Group 12574">
        <path id="Path_8661" data-name="Path 8661" d="M6.365,300H1.56a1.533,1.533,0,0,0-1.534,1.534v18.607a1.534,1.534,0,0,0,1.534,1.534H6.365a3.067,3.067,0,0,0,3.067-3.067v-15.54A3.067,3.067,0,0,0,6.365,300Z" transform="translate(-0.026 -300)" fill="#fb5012"/>
      </g>
    </g>
    <g id="Group_12577" data-name="Group 12577" transform="translate(26.357 15.336)">
      <g id="Group_12576" data-name="Group 12576">
        <path id="Path_8662" data-name="Path 8662" d="M257.577,150c.28,6.4,2.187,12.269,3.011,12.269S263.318,156.4,263.6,150Z" transform="translate(-257.577 -150)" fill="#fb5012"/>
      </g>
    </g>
    <g id="Group_12579" data-name="Group 12579" transform="translate(33.13 0.587)">
      <g id="Group_12578" data-name="Group 12578">
        <path id="Path_8663" data-name="Path 8663" d="M323.821,5.74a35.1,35.1,0,0,1,2.336,11.682h7.549A13.744,13.744,0,0,0,323.821,5.74Z" transform="translate(-323.821 -5.74)" fill="#fb5012"/>
      </g>
    </g>
    <g id="Group_12581" data-name="Group 12581" transform="translate(26.357)">
      <g id="Group_12580" data-name="Group 12580">
        <path id="Path_8664" data-name="Path 8664" d="M260.588,0c-.824,0-2.73,5.864-3.011,12.269H263.6C263.318,5.864,261.412,0,260.588,0Z" transform="translate(-257.577)" fill="#fb5012"/>
      </g>
    </g>
    <g id="Group_12583" data-name="Group 12583" transform="translate(33.13 15.336)">
      <g id="Group_12582" data-name="Group 12582">
        <path id="Path_8665" data-name="Path 8665" d="M326.157,150a35.1,35.1,0,0,1-2.336,11.682A13.744,13.744,0,0,0,333.706,150Z" transform="translate(-323.821 -150)" fill="#fb5012"/>
      </g>
    </g>
    <g id="Group_12585" data-name="Group 12585" transform="translate(15.721 15.336)">
      <g id="Group_12584" data-name="Group 12584">
        <path id="Path_8666" data-name="Path 8666" d="M161.091,150h-7.549a13.744,13.744,0,0,0,9.885,11.682A35.1,35.1,0,0,1,161.091,150Z" transform="translate(-153.542 -150)" fill="#fb5012"/>
      </g>
    </g>
    <g id="Group_12587" data-name="Group 12587" transform="translate(15.721 0.587)">
      <g id="Group_12586" data-name="Group 12586">
        <path id="Path_8667" data-name="Path 8667" d="M153.542,17.422h7.549A35.1,35.1,0,0,1,163.427,5.74,13.744,13.744,0,0,0,153.542,17.422Z" transform="translate(-153.542 -5.74)" fill="#fb5012"/>
      </g>
    </g>
    <g id="Group_12589" data-name="Group 12589" transform="translate(12.499 30.089)">
      <g id="Group_12588" data-name="Group 12588">
        <path id="Path_8668" data-name="Path 8668" d="M160.641,295.465a3.057,3.057,0,0,0-4.049.4l-8.281,10.306a3.707,3.707,0,0,1-2.27.982h-11.87a1.534,1.534,0,0,1,0-3.067h10.858a3.075,3.075,0,0,0,3.057-3.318,3.109,3.109,0,0,0-3.119-2.816h-7.974a1.86,1.86,0,0,1-1.012-.368c-2.367-2.08-4.443-3.282-7.883-3.282a10.514,10.514,0,0,0-6.073,1.964v19.342a16.836,16.836,0,0,0,5.429.952h17.575a9.294,9.294,0,0,0,7.361-3.783c.568-.823,8.332-12.188,8.895-12.984A3.091,3.091,0,0,0,160.641,295.465Z" transform="translate(-122.026 -294.3)" fill="#800020"/>
      </g>
    </g>
  </g>
</svg>
