<svg xmlns="http://www.w3.org/2000/svg" width="49.004" height="49.004" viewBox="0 0 49.004 49.004">
  <g id="Group_12983" data-name="Group 12983" transform="translate(-383.512 -8766.854)">
    <g id="Ellipse_332" data-name="Ellipse 332" transform="translate(383.512 8766.854)" fill="none" stroke="#fb5012" stroke-width="2">
      <circle cx="24.502" cy="24.502" r="24.502" stroke="none"/>
      <circle cx="24.502" cy="24.502" r="23.502" fill="none"/>
    </g>
    <g id="Layer_2" data-name="Layer 2" transform="translate(391.57 8776.602)">
      <path id="Path_8950" data-name="Path 8950" d="M48.325,47H43.41a.41.41,0,0,0-.41.41v4.915a.412.412,0,0,0,.7.291L48.616,47.7a.412.412,0,0,0-.291-.7Z" transform="translate(-21.845 -25.978)" fill="#fb5012"/>
      <path id="Path_8951" data-name="Path 8951" d="M15.421,39.83v-8.6A1.229,1.229,0,0,0,14.192,30H7.229A1.229,1.229,0,0,0,6,31.229v8.6a1.229,1.229,0,0,0,1.229,1.229h6.963A1.229,1.229,0,0,0,15.421,39.83Zm-6.144-.41H8.048V38.6H9.277Zm0-1.638H8.048v-.819H9.277Zm0-1.638H8.048v-.819H9.277Zm2.048,3.277H10.1V38.6h1.229Zm0-1.638H10.1v-.819h1.229Zm0-1.638H10.1v-.819h1.229Zm2.048,3.277H12.144V38.6h1.229Zm0-1.638H12.144v-.819h1.229Zm0-1.638H12.144v-.819h1.229Zm.41-2.048a.41.41,0,0,1-.07.225h0a.41.41,0,0,1-.34.184H8.048a.41.41,0,0,1-.41-.41V32.048a.25.25,0,0,1,0-.057.41.41,0,0,1,.41-.352h5.325a.407.407,0,0,1,.41.41Z" transform="translate(0 -15.941)" fill="#800020"/>
      <path id="Path_8952" data-name="Path 8952" d="M28,17.638h.119a.819.819,0,1,0,0-1.638H28Z" transform="translate(-12.989 -7.675)" fill="#fb5012"/>
      <path id="Path_8953" data-name="Path 8953" d="M40.37,17.588a2.048,2.048,0,0,0,3.383-.631l-2-1.327Z" transform="translate(-20.292 -7.457)" fill="#800020"/>
      <path id="Path_8954" data-name="Path 8954" d="M23.71,10.819a.819.819,0,0,0,.819.819h.119V10h-.119A.819.819,0,0,0,23.71,10.819Z" transform="translate(-10.456 -4.133)" fill="#fb5012"/>
      <path id="Path_8955" data-name="Path 8955" d="M30.155,3H17.048A2.048,2.048,0,0,0,15,5.048V13.24h4.506a2.048,2.048,0,0,1,2.048,2.048v8.6a2.048,2.048,0,0,1-2.048,2.048h-4.1a2.048,2.048,0,0,0,1.638.819h8.675a1.151,1.151,0,0,1-.074-.41V21.432A1.229,1.229,0,0,1,26.878,20.2h4.915a1.151,1.151,0,0,1,.41.074V5.048A2.048,2.048,0,0,0,30.155,3ZM22.782,16.107h5.1v.819h-5.1Zm-2.339-8.6a1.638,1.638,0,1,1,0,3.277h-.119v1h-.819v-1h-.119a1.638,1.638,0,0,1-1.638-1.638h.819a.819.819,0,0,0,.819.819h.119V8.325h-.119a1.638,1.638,0,1,1,0-3.277h.119v-1h.819v1h.119a1.638,1.638,0,0,1,1.638,1.638h-.819a.819.819,0,0,0-.819-.819h-.119V7.506ZM24.7,21.022H22.782V20.2H24.7Zm4.227-2.048H22.782v-.819h6.144Zm0-4.1H22.782v-.819h6.144ZM26.878,11.6a2.867,2.867,0,1,1,2.867-2.867A2.867,2.867,0,0,1,26.878,11.6Z" transform="translate(-5.314)" fill="#fb5012"/>
    </g>
  </g>
</svg>
