<svg xmlns="http://www.w3.org/2000/svg" width="49.004" height="49.004" viewBox="0 0 49.004 49.004">
  <g id="Group_12993" data-name="Group 12993" transform="translate(-971.512 -8936.594)">
    <g id="Ellipse_332" data-name="Ellipse 332" transform="translate(971.512 8936.594)" fill="none" stroke="#fb5012" stroke-width="2">
      <circle cx="24.502" cy="24.502" r="24.502" stroke="none"/>
      <circle cx="24.502" cy="24.502" r="23.502" fill="none"/>
    </g>
    <g id="location" transform="translate(921.41 8946.958)">
      <g id="Group_12987" data-name="Group 12987" transform="translate(64)">
        <g id="Group_12986" data-name="Group 12986" transform="translate(0)">
          <path id="Path_8992" data-name="Path 8992" d="M204.371,193.178H202.5a.6.6,0,0,1-.417-.173l-.488-.488a1.756,1.756,0,0,0-1.25-.518H197.79a1.756,1.756,0,0,0-1.25.518l-.488.488a.6.6,0,0,1-.417.173h-1.869A1.769,1.769,0,0,0,192,194.945v7.069a1.769,1.769,0,0,0,1.767,1.767h10.6a1.769,1.769,0,0,0,1.767-1.767v-7.069A1.769,1.769,0,0,0,204.371,193.178Zm-5.3,8.836a3.535,3.535,0,1,1,3.535-3.535A3.538,3.538,0,0,1,199.069,202.015Z" transform="translate(-184.931 -181.396)" fill="#fb5012"/>
          <circle id="Ellipse_381" data-name="Ellipse 381" cx="2.356" cy="2.356" r="2.356" transform="translate(11.782 14.727)" fill="#800020"/>
          <path id="Path_8993" data-name="Path 8993" d="M73.426,4.713A4.694,4.694,0,0,1,78.083,8.9a.59.59,0,0,0,.586.524h.75a2.923,2.923,0,0,1,2.083.864l.143.143a.592.592,0,0,0,.416.171h.165a.59.59,0,0,0,.588-.551l.014-.179c.013-.148.024-.3.024-.448A9.426,9.426,0,1,0,65.132,13.9l3.655,6.61a.589.589,0,0,0,1.1-.285v-6.68a2.941,2.941,0,0,1,.066-.611.588.588,0,0,0-.125-.5,4.647,4.647,0,0,1-1.119-3.012A4.718,4.718,0,0,1,73.426,4.713Z" transform="translate(-64)" fill="#800020"/>
          <path id="Path_8994" data-name="Path 8994" d="M189.424,419.992h-2.543a2.919,2.919,0,0,1-1.316-.327.589.589,0,0,0-.781.811l2.17,3.925a.589.589,0,0,0,1.031,0l1.954-3.535a.589.589,0,0,0-.515-.874Z" transform="translate(-178.044 -396.428)" fill="#800020"/>
        </g>
      </g>
    </g>
  </g>
</svg>
