<svg xmlns="http://www.w3.org/2000/svg" width="49.004" height="49.004" viewBox="0 0 49.004 49.004">
  <g id="Group_12985" data-name="Group 12985" transform="translate(-380.872 -8925.43)">
    <g id="Ellipse_332" data-name="Ellipse 332" transform="translate(380.872 8925.43)" fill="none" stroke="#fb5012" stroke-width="2">
      <circle cx="24.502" cy="24.502" r="24.502" stroke="none"/>
      <circle cx="24.502" cy="24.502" r="23.502" fill="none"/>
    </g>
    <g id="logistics_1_" data-name="logistics (1)" transform="translate(392.996 8938.054)">
      <path id="Path_8966" data-name="Path 8966" d="M148.77,0H136.2a.7.7,0,0,0-.7.7V2.134a.7.7,0,0,0,.7.7H148.77a.7.7,0,0,0,.7-.7V.7A.7.7,0,0,0,148.77,0Zm0,0" transform="translate(-128.736 0)" fill="#fb5012"/>
      <path id="Path_8967" data-name="Path 8967" d="M5.333,340.147a.7.7,0,0,0,.984,0l2.33-2.377a.7.7,0,0,0,0-.984L4.065,332.2a.7.7,0,0,0-.984,0L.7,334.58a.7.7,0,0,0,0,.984Zm0,0" transform="translate(0 -316.595)" fill="#800020"/>
      <path id="Path_8968" data-name="Path 8968" d="M115.5,189.535l3.374-6.489a.7.7,0,0,0-.792-1.02,5.26,5.26,0,0,0-3.128,2.443l-1.719,3.373a2.082,2.082,0,0,1-1.849,1.119h-5.037a.7.7,0,0,1,0-1.392h5.037a.7.7,0,0,0,.62-.38l.709-1.392a.7.7,0,0,0-.62-1.012h-7.377a3.48,3.48,0,0,0-2.461,1.02l-2.436,2.436,4.524,4.524c.049.049.087.106.13.158l1.177-1.177h6.164a4.147,4.147,0,0,0,3.683-2.21Zm0,0" transform="translate(-94.716 -173.556)" fill="#800020"/>
      <path id="Path_8969" data-name="Path 8969" d="M176.241,97.263l.1-.2c.1-.176.226-.326.338-.491V91H165.5v5.983a4.876,4.876,0,0,1,1.849-.369h7.377a2.07,2.07,0,0,1,1.514.649Zm-4.43-2.041h-2.83a.7.7,0,0,1,0-1.392h2.83a.7.7,0,0,1,0,1.392Zm0,0" transform="translate(-157.345 -86.778)" fill="#fb5012"/>
    </g>
  </g>
</svg>
