<svg xmlns="http://www.w3.org/2000/svg" width="49.004" height="49.005" viewBox="0 0 49.004 49.005">
  <g id="Group_12989" data-name="Group 12989" transform="translate(-971.512 -8618.032)">
    <g id="Ellipse_332" data-name="Ellipse 332" transform="translate(971.512 8618.032)" fill="none" stroke="#fb5012" stroke-width="2">
      <circle cx="24.502" cy="24.502" r="24.502" stroke="none"/>
      <circle cx="24.502" cy="24.502" r="23.502" fill="none"/>
    </g>
    <g id="real_estate" data-name="real estate" transform="translate(978.769 8625.518)">
      <path id="Path_9000" data-name="Path 9000" d="M10.473,38a.473.473,0,0,0-.473.473V45.1a.473.473,0,1,0,.946,0V38.473A.473.473,0,0,0,10.473,38Z" transform="translate(-3.162 -17.917)" fill="#800020"/>
      <path id="Path_9001" data-name="Path 9001" d="M4,47.846l1.892-1.892V40H4Z" transform="translate(0 -18.971)" fill="#800020"/>
      <path id="Path_9002" data-name="Path 9002" d="M13.063,33l3.444,1.837H27.641c1.077-.463,1.6-.683,1.857-.788L30.523,32H4.618l1.419,2.838H6.3a1.409,1.409,0,0,1,2.584-.181l3.759-1.671a.473.473,0,0,1,.415.015Z" transform="translate(-0.326 -14.755)" fill="#800020"/>
      <path id="Path_9003" data-name="Path 9003" d="M21.622,4H15V16.3h6.622Zm-4.73,11.353h-.946v-.946h.946Zm0-1.892h-.946v-.946h.946Zm0-1.892h-.946v-.946h.946Zm0-1.892h-.946V8.73h.946Zm0-1.892h-.946V6.838h.946Zm0-1.892h-.946V4.946h.946Zm1.892,9.461h-.946v-.946h.946Zm0-1.892h-.946v-.946h.946Zm0-1.892h-.946v-.946h.946Zm0-1.892h-.946V8.73h.946Zm0-1.892h-.946V6.838h.946Zm0-1.892h-.946V4.946h.946Zm1.892,9.461H19.73v-.946h.946Zm0-1.892H19.73v-.946h.946Zm0-1.892H19.73v-.946h.946Zm0-1.892H19.73V8.73h.946Zm0-1.892H19.73V6.838h.946Zm0-1.892H19.73V4.946h.946Z" transform="translate(-5.797)" fill="#fb5012"/>
      <path id="Path_9004" data-name="Path 9004" d="M39.515,12H31v8.515h8.515Zm-6.622,7.569h-.946v-.946h.946Zm0-1.892h-.946V16.73h.946Zm0-1.892h-.946v-.946h.946Zm0-1.892h-.946v-.946h.946Zm1.892,5.676h-.946v-.946h.946Zm0-1.892h-.946V16.73h.946Zm0-1.892h-.946v-.946h.946Zm0-1.892h-.946v-.946h.946Zm1.892,5.676H35.73v-.946h.946Zm0-1.892H35.73V16.73h.946Zm0-1.892H35.73v-.946h.946Zm0-1.892H35.73v-.946h.946Zm1.892,5.676h-.946v-.946h.946Zm0-1.892h-.946V16.73h.946Zm0-1.892h-.946v-.946h.946Zm0-1.892h-.946v-.946h.946Z" transform="translate(-14.228 -4.216)" fill="#800020"/>
      <path id="Path_9005" data-name="Path 9005" d="M35.494,37.21a.749.749,0,0,0-.568-.174c-.378.142-6.2,2.667-10.085,4.36a1.4,1.4,0,0,1-.907.338H17.784v-.946h6.149a.473.473,0,0,0,.473-.473v-.662l-6.641-3.542L14,37.786v6l8.459,3.562L35.434,38.4a.753.753,0,0,0,.325-.613.73.73,0,0,0-.266-.575Z" transform="translate(-5.27 -16.922)" fill="#fb5012"/>
      <path id="Path_9006" data-name="Path 9006" d="M40.671,40H33.5l1.878,1a.473.473,0,0,1,.251.418v.772C37.761,41.263,39.4,40.549,40.671,40Z" transform="translate(-15.545 -18.971)" fill="#800020"/>
    </g>
  </g>
</svg>
