<svg xmlns="http://www.w3.org/2000/svg" width="49.004" height="49.004" viewBox="0 0 49.004 49.004">
  <g id="Group_12981" data-name="Group 12981" transform="translate(-383.512 -8606.939)">
    <g id="Ellipse_332" data-name="Ellipse 332" transform="translate(383.512 8606.939)" fill="none" stroke="#fb5012" stroke-width="2">
      <circle cx="24.502" cy="24.502" r="24.502" stroke="none"/>
      <circle cx="24.502" cy="24.502" r="23.502" fill="none"/>
    </g>
    <g id="ecommerce_1_" data-name="ecommerce (1)" transform="translate(395.893 8619.32)">
      <path id="Path_8958" data-name="Path 8958" d="M6.988,104.784H22.714l1.529-9.943H5.993L5.709,92H0v1.421H4.423l1.42,14.2h18.4V106.2H7.13Zm0,0" transform="translate(0 -87.644)" fill="#800020"/>
      <path id="Path_8959" data-name="Path 8959" d="M152,424.131A2.131,2.131,0,1,0,154.131,422,2.133,2.133,0,0,0,152,424.131Zm0,0" transform="translate(-144.803 -402.018)" fill="#fb5012"/>
      <path id="Path_8960" data-name="Path 8960" d="M362,424.131A2.131,2.131,0,1,0,364.131,422,2.133,2.133,0,0,0,362,424.131Zm0,0" transform="translate(-344.859 -402.018)" fill="#fb5012"/>
      <path id="Path_8961" data-name="Path 8961" d="M182,62h8.523v2.841H182Zm0,0" transform="translate(-173.382 -59.064)" fill="#fb5012"/>
      <path id="Path_8962" data-name="Path 8962" d="M277.682,5.777h2.841V0H272V1.515h5.682Zm0,0" transform="translate(-259.121)" fill="#fb5012"/>
    </g>
  </g>
</svg>
