<svg xmlns="http://www.w3.org/2000/svg" width="49.004" height="49.004" viewBox="0 0 49.004 49.004">
  <g id="Group_12992" data-name="Group 12992" transform="translate(-971.512 -8856.936)">
    <g id="Ellipse_332" data-name="Ellipse 332" transform="translate(971.512 8856.936)" fill="none" stroke="#fb5012" stroke-width="2">
      <circle cx="24.502" cy="24.502" r="24.502" stroke="none"/>
      <circle cx="24.502" cy="24.502" r="23.502" fill="none"/>
    </g>
    <g id="Page-1" transform="translate(981.689 8870.289)">
      <g id="_022---Running" data-name="022---Running" transform="translate(-0.021)">
        <circle id="Oval" cx="2.188" cy="2.188" r="2.188" transform="translate(19.941 3.403)" fill="#fb5012"/>
        <circle id="Oval-2" data-name="Oval" cx="1.458" cy="1.458" r="1.458" transform="translate(11.191)" fill="#800020"/>
        <path id="Shape" d="M33.1,20.235c-5.263,1.05-4.947,1-5.148,1a1.451,1.451,0,0,1-1.24-.7l-1.765-2.863-1.672,2.508,3.383,1.692a1.458,1.458,0,0,1,.651.651l2.431,4.861a1.458,1.458,0,1,1-2.606,1.3L24.919,24.27l-3.772-1.891-4.21,2.1a1.444,1.444,0,0,1-1.424-.068l-3.889-2.431a1.458,1.458,0,1,1,1.546-2.469l3.194,1.993,3.787-1.891c.03-.049-.146.216,3.116-4.672-.033-.049.211-.029-2.975-.029l-2,2a1.458,1.458,0,0,1-1.711.258h0v0a1.458,1.458,0,0,1-.345-2.314l2.431-2.431A1.487,1.487,0,0,1,19.688,12h4.375a1.464,1.464,0,0,1,1.244.7l3.354,5.454,3.865-.773a1.458,1.458,0,1,1,.574,2.858Z" transform="translate(-6.067 -6.167)" fill="#fb5012"/>
        <path id="Shape-2" data-name="Shape" d="M13.434,6.7a2.294,2.294,0,0,0-.549.413l-1.05,1.05L11.2,7.142,9.987,8.969l.7.345-.233.233a2.44,2.44,0,0,0-.71,1.677l-1.313-.656L5.364,12.1a1.069,1.069,0,0,1-1.04-.049L1.49,10.282a1.064,1.064,0,1,1,1.128-1.8L4.946,9.937,7.7,8.556,9.978,5.149l-.01-.024H7.81L6.351,6.588a1.064,1.064,0,0,1-1.507-1.5L6.619,3.311A1.069,1.069,0,0,1,7.372,3h3.189a1.058,1.058,0,0,1,.9.506Z" transform="translate(-0.979 -1.542)" fill="#800020"/>
        <path id="Shape-3" data-name="Shape" d="M26.288,24.378l-.18.272-1.653.826L23.77,24.1a.86.86,0,0,0,.112,0,2.393,2.393,0,0,0,1.716-.715l.131-.131Z" transform="translate(-12.691 -11.953)" fill="#800020"/>
        <path id="Shape-4" data-name="Shape" d="M41.528,49.972H25.486a.486.486,0,0,1,0-.972H41.528a.486.486,0,1,1,0,.972Z" transform="translate(-13.323 -25.18)" fill="#800020"/>
        <path id="Shape-5" data-name="Shape" d="M20.458,49.972h-.972a.486.486,0,0,1,0-.972h.972a.486.486,0,0,1,0,.972Z" transform="translate(-10.24 -25.18)" fill="#800020"/>
      </g>
    </g>
  </g>
</svg>
