<svg xmlns="http://www.w3.org/2000/svg" width="49.004" height="49.004" viewBox="0 0 49.004 49.004">
  <g id="Group_12988" data-name="Group 12988" transform="translate(-971.512 -8538.445)">
    <g id="Ellipse_332" data-name="Ellipse 332" transform="translate(971.512 8538.445)" fill="none" stroke="#fb5012" stroke-width="2">
      <circle cx="24.502" cy="24.502" r="24.502" stroke="none"/>
      <circle cx="24.502" cy="24.502" r="23.502" fill="none"/>
    </g>
    <g id="manufacturing" transform="translate(983.02 8550.572)">
      <path id="Path_8995" data-name="Path 8995" d="M195.249,84.634A3.249,3.249,0,1,0,192,81.386,3.249,3.249,0,0,0,195.249,84.634Zm0-5.569a2.32,2.32,0,1,1-2.32,2.32A2.321,2.321,0,0,1,195.249,79.065Zm0,0" transform="translate(-182.254 -73.698)" fill="#fb5012"/>
      <path id="Path_8996" data-name="Path 8996" d="M231.355,116.1a1.392,1.392,0,1,1-1.392-1.392A1.392,1.392,0,0,1,231.355,116.1Zm0,0" transform="translate(-216.968 -108.412)" fill="#fb5012"/>
      <path id="Path_8997" data-name="Path 8997" d="M109.715,6.295V9.079a.465.465,0,0,0,.464.464h1.713a5.474,5.474,0,0,0,1.016,1.764l-.854,1.481a.463.463,0,0,0,.167.636l2.413,1.392a.462.462,0,0,0,.631-.172l.854-1.48a5.663,5.663,0,0,0,2.042,0l.854,1.48a.462.462,0,0,0,.631.172l2.413-1.392a.463.463,0,0,0,.167-.636l-.854-1.481a5.474,5.474,0,0,0,1.016-1.764H124.1a.465.465,0,0,0,.464-.464V6.295a.465.465,0,0,0-.464-.464h-1.713a5.475,5.475,0,0,0-1.016-1.764l.854-1.48a.463.463,0,0,0-.167-.636L119.646.559a.462.462,0,0,0-.631.172l-.854,1.48a5.663,5.663,0,0,0-2.042,0L115.265.73a.462.462,0,0,0-.631-.172l-2.413,1.392a.463.463,0,0,0-.167.636l.854,1.48a5.475,5.475,0,0,0-1.016,1.764h-1.713A.465.465,0,0,0,109.715,6.295ZM117.14,3.51a4.177,4.177,0,1,1-4.177,4.177A4.177,4.177,0,0,1,117.14,3.51Zm0,0" transform="translate(-104.146)" fill="#800020"/>
      <path id="Path_8998" data-name="Path 8998" d="M.464,288.422h2.32a.464.464,0,0,1,.464.464v9.746a.464.464,0,0,1-.464.464H.464A.464.464,0,0,1,0,298.632v-9.746a.464.464,0,0,1,.464-.464Zm0,0" transform="translate(0 -273.309)" fill="#800020"/>
      <path id="Path_8999" data-name="Path 8999" d="M82.285,306.707v9.282H93.563a2.786,2.786,0,0,0,1.448-.406l8.7-5.3a.808.808,0,0,0,.226-1.174c-.01-.013-.018-.026-.027-.04a.8.8,0,0,0-.876-.244l-8.591,2.863a2.322,2.322,0,0,1-.734.119H89.583a3.7,3.7,0,0,0-2.06.624l-.34.226a.464.464,0,1,1-.515-.772l.34-.227a4.627,4.627,0,0,1,2.574-.78H92.4a1.213,1.213,0,0,0,.069-1.35l-.042-.069a1.866,1.866,0,0,0-1.592-.9H88.412a4.717,4.717,0,0,1-2.936-1.03,3.785,3.785,0,0,0-2.356-.826Zm0,0" transform="translate(-78.108 -290.666)" fill="#fb5012"/>
    </g>
  </g>
</svg>
