<svg xmlns="http://www.w3.org/2000/svg" width="49.004" height="49.004" viewBox="0 0 49.004 49.004">
  <g id="Group_12984" data-name="Group 12984" transform="translate(-383.512 -8846.512)">
    <g id="Ellipse_332" data-name="Ellipse 332" transform="translate(383.512 8846.512)" fill="none" stroke="#fb5012" stroke-width="2">
      <circle cx="24.502" cy="24.502" r="24.502" stroke="none"/>
      <circle cx="24.502" cy="24.502" r="23.502" fill="none"/>
    </g>
    <g id="healthcare" transform="translate(397.281 8831.566)">
      <path id="Path_8963" data-name="Path 8963" d="M151.629,36.789h1.887v1.887a.629.629,0,0,0,.629.629h2.516a.629.629,0,0,0,.629-.629V36.789h1.887a.629.629,0,0,0,.629-.629V33.644a.629.629,0,0,0-.629-.629h-1.887V31.129a.629.629,0,0,0-.629-.629h-2.516a.629.629,0,0,0-.629.629v1.887h-1.887a.629.629,0,0,0-.629.629V36.16A.629.629,0,0,0,151.629,36.789Z" transform="translate(-144.669)" fill="#fb5012"/>
      <path id="Path_8964" data-name="Path 8964" d="M279.861,91.341a1.278,1.278,0,0,0-1.315,1.278c0,2.128,0,6.151,0,6.151a1.929,1.929,0,0,1-.567,1.366l-1.893,1.893a.641.641,0,0,1-.88.034.629.629,0,0,1-.023-.911l1.739-1.739a1.309,1.309,0,0,0-1.849-1.855l-3.892,3.864a.63.63,0,0,0-.186.447V107.7h6.918v-3.007l3-2.96a.63.63,0,0,0,.187-.447V92.646A1.3,1.3,0,0,0,279.861,91.341Z" transform="translate(-259.637 -58.29)" fill="#800020"/>
      <path id="Path_8965" data-name="Path 8965" d="M6.025,97.56a1.309,1.309,0,0,0-1.849,1.855l1.739,1.739a.629.629,0,0,1-.023.911.641.641,0,0,1-.88-.034l-1.893-1.893a1.929,1.929,0,0,1-.567-1.366s0-3.987,0-6.122a1.3,1.3,0,0,0-1.3-1.307A1.278,1.278,0,0,0,0,92.62v8.664a.629.629,0,0,0,.187.447l3,2.96V107.7H10.1v-5.828a.63.63,0,0,0-.186-.447Z" transform="translate(0 -58.29)" fill="#800020"/>
    </g>
  </g>
</svg>
