<svg xmlns="http://www.w3.org/2000/svg" width="49.004" height="49.004" viewBox="0 0 49.004 49.004">
  <g id="Group_12991" data-name="Group 12991" transform="translate(-971.512 -8777.277)">
    <g id="Ellipse_332" data-name="Ellipse 332" transform="translate(971.512 8777.277)" fill="none" stroke="#fb5012" stroke-width="2">
      <circle cx="24.502" cy="24.502" r="24.502" stroke="none"/>
      <circle cx="24.502" cy="24.502" r="23.502" fill="none"/>
    </g>
    <g id="supply-chain" transform="translate(956.352 8787.917)">
      <path id="Path_9019" data-name="Path 9019" d="M271,215v5.686l4.924-2.843V212.16Z" transform="translate(-230.525 -200.671)" fill="#800020"/>
      <path id="Path_9020" data-name="Path 9020" d="M169.991,139.366l4.924-2.843-4.924-2.843-4.924,2.843Z" transform="translate(-130.328 -126.441)" fill="#800020"/>
      <path id="Path_9021" data-name="Path 9021" d="M154.991,215l-4.924-2.843v5.686l4.924,2.843Z" transform="translate(-116.141 -200.671)" fill="#800020"/>
      <path id="Path_9022" data-name="Path 9022" d="M51.02,17.184a11.872,11.872,0,0,0,0-6.642,2.842,2.842,0,0,0-2.8-4.855,11.872,11.872,0,0,0-5.753-3.319,2.842,2.842,0,0,0-5.6,0A11.873,11.873,0,0,0,31.11,5.688a2.843,2.843,0,0,0-2.8,4.853,11.873,11.873,0,0,0,0,6.642,2.845,2.845,0,0,0,1.817,5.034,2.811,2.811,0,0,0,.983-.179,11.873,11.873,0,0,0,5.753,3.319,2.842,2.842,0,0,0,5.6,0,11.872,11.872,0,0,0,5.751-3.322,2.843,2.843,0,0,0,2.805-4.853Zm-8.757,6.55a2.842,2.842,0,0,0-5.2,0,10.245,10.245,0,0,1-4.649-2.681,2.843,2.843,0,0,0-2.6-4.505,10.244,10.244,0,0,1,0-5.368,2.844,2.844,0,0,0,2.6-4.5A10.244,10.244,0,0,1,37.062,3.99a2.842,2.842,0,0,0,5.2,0,10.244,10.244,0,0,1,4.65,2.682,2.843,2.843,0,0,0,2.6,4.5,10.244,10.244,0,0,1,0,5.368,2.841,2.841,0,0,0-2.6,4.5,10.243,10.243,0,0,1-4.648,2.686Z" transform="translate(0)" fill="#fb5012"/>
    </g>
  </g>
</svg>
