<svg xmlns="http://www.w3.org/2000/svg" width="49.004" height="49.004" viewBox="0 0 49.004 49.004">
  <g id="Group_12990" data-name="Group 12990" transform="translate(-971.512 -8697.619)">
    <g id="Ellipse_332" data-name="Ellipse 332" transform="translate(971.512 8697.619)" fill="none" stroke="#fb5012" stroke-width="2">
      <circle cx="24.502" cy="24.502" r="24.502" stroke="none"/>
      <circle cx="24.502" cy="24.502" r="23.502" fill="none"/>
    </g>
    <g id="store" transform="translate(979.521 8705.628)">
      <path id="Path_9007" data-name="Path 9007" d="M14.038,27.586h.473a1.037,1.037,0,0,0,1.036-1.036v-.806H13v.806a1.037,1.037,0,0,0,1.038,1.036Z" transform="translate(-4.595 -11.915)" fill="#800020"/>
      <path id="Path_9008" data-name="Path 9008" d="M38.05,27.586h.473a1.037,1.037,0,0,0,1.036-1.036v-.806H37.014v.806a1.037,1.037,0,0,0,1.036,1.036Z" transform="translate(-18.387 -11.915)" fill="#fb5012"/>
      <path id="Path_9009" data-name="Path 9009" d="M22.043,27.586h.473a1.037,1.037,0,0,0,1.036-1.036v-.806H21.007v.806A1.037,1.037,0,0,0,22.043,27.586Z" transform="translate(-9.193 -11.915)" fill="#fb5012"/>
      <path id="Path_9010" data-name="Path 9010" d="M30.046,27.586h.473a1.037,1.037,0,0,0,1.036-1.036v-.806H29.01v.806A1.037,1.037,0,0,0,30.046,27.586Z" transform="translate(-13.79 -11.915)" fill="#800020"/>
      <path id="Path_9011" data-name="Path 9011" d="M26.339,11.4H7.078l-1.7,5.254H28.042Z" transform="translate(-0.215 -3.677)" fill="#fb5012"/>
      <path id="Path_9012" data-name="Path 9012" d="M9.647,5H28.676V6.874H9.647Z" transform="translate(-2.669)" fill="#fb5012"/>
      <path id="Path_9013" data-name="Path 9013" d="M46.055,27.586h.473a1.037,1.037,0,0,0,1.038-1.036v-.806H45.02v.806A1.037,1.037,0,0,0,46.055,27.586Z" transform="translate(-22.985 -11.915)" fill="#800020"/>
      <path id="Path_9014" data-name="Path 9014" d="M28.412,30.393a1.876,1.876,0,0,1-1.467.714h-.473a1.876,1.876,0,0,1-1.467-.714,1.876,1.876,0,0,1-1.467.714h-.473a1.875,1.875,0,0,1-1.467-.714,1.876,1.876,0,0,1-1.467.714h-.472a1.876,1.876,0,0,1-1.466-.714,1.875,1.875,0,0,1-1.466.714h-.474a1.876,1.876,0,0,1-1.465-.714,1.876,1.876,0,0,1-1.467.714h-.475a1.876,1.876,0,0,1-1.467-.714,1.942,1.942,0,0,1-.455.412V42.57h2.118V33.3a.426.426,0,0,1,.426-.426h4.944a.426.426,0,0,1,.426.426V42.57h10.03V30.805a1.942,1.942,0,0,1-.455-.412Zm-1.664,7.793a.426.426,0,0,1-.426.426H21.379a.426.426,0,0,1-.426-.426V33.239a.426.426,0,0,1,.426-.426h4.944a.426.426,0,0,1,.426.426Z" transform="translate(-3.402 -14.584)" fill="#800020"/>
      <path id="Path_9015" data-name="Path 9015" d="M53.02,25.745v.806a1.037,1.037,0,0,0,1.036,1.036h.473a1.037,1.037,0,0,0,1.036-1.036v-.806Z" transform="translate(-27.58 -11.915)" fill="#fb5012"/>
      <path id="Path_9016" data-name="Path 9016" d="M17.9,38.215H21.99v8.847H17.9Z" transform="translate(-7.407 -19.077)" fill="#fb5012"/>
      <path id="Path_9017" data-name="Path 9017" d="M7.545,25.745H5v.806a1.037,1.037,0,0,0,1.036,1.036h.473a1.037,1.037,0,0,0,1.036-1.036Z" transform="translate(0 -11.915)" fill="#fb5012"/>
      <path id="Path_9018" data-name="Path 9018" d="M36.486,38.08H40.58v4.094H36.486Z" transform="translate(-18.083 -18.999)" fill="#fb5012"/>
    </g>
  </g>
</svg>
